# xmcd
#
# Track frame offsets:
#	150
#	4053
#	21700
#	40166
#	64453
#	90736
#	110407
#	141535
#	163919
#	182775
#	202949
#
# Disc length: 3069 seconds
#
# Revision: 11
# Processed by: cddbd v1.5.2PL0 Copyright (c) Steve Scherf et al.
# Submitted via: Jack! The Knife 20 Magnifico
#
DISCID=a10bfb0b
DTITLE=Overkill - White Devil Armory
DYEAR=2014
DGENRE=Metal
TTITLE0=XDm
TTITLE1=Armorist
TTITLE2=Down To The Bone
TTITLE3=Pig
TTITLE4=Bitter Pill
TTITLE5=Where There's Smoke...
TTITLE6=Freedom Rings
TTITLE7=Another Day To Die
TTITLE8=King Of The Rat Bastards
TTITLE9=It's All Yours
TTITLE10=In The Name
EXTD=Overkill
EXTT0=Verni, Ellsworth
EXTT1=Verni, Ellsworth
EXTT2=Verni, Ellsworth
EXTT3=Verni, Ellsworth
EXTT4=Verni, Ellsworth
EXTT5=Verni, Ellsworth
EXTT6=Verni, Ellsworth
EXTT7=Verni, Ellsworth
EXTT8=Verni, Ellsworth
EXTT9=Verni, Ellsworth
EXTT10=Verni, Ellsworth
PLAYORDER=
